<svg xmlns="http://www.w3.org/2000/svg" viewBox="0 0 40 120">
    <g fill="none" fill-rule="nonzero">
        <path fill="#A51363" d="M23 11h6v6h-6z"/>
        <path fill="#3B3B3B" d="M31 11h6v6h-6zM31 3h6v6h-6zM23 3h6v6h-6z"/>
        <path fill="#A51363" d="M31 37v-6h6v6z"/>
        <path fill="#3B3B3B" d="M31 29v-6h6v6zM23 29v-6h6v6zM23 37v-6h6v6z"/>
        <path fill="#A51363" d="M29 43v6h-6v-6z"/>
        <path fill="#3B3B3B" d="M29 51v6h-6v-6zM37 51v6h-6v-6zM37 43v6h-6v-6z"/>
        <g>
            <path fill="#A51363" d="M37 69h-6v-6h6z"/>
            <path fill="#3B3B3B" d="M29 69h-6v-6h6zM29 77h-6v-6h6zM37 77h-6v-6h6z"/>
        </g>
        <g>
            <path fill="#A51363" d="M23 87h6v6h-6z"/>
            <path fill="#3B3B3B" d="M31 87h6v6h-6z"/>
        </g>
        <g>
            <path fill="#A51363" d="M37 113h-6v-6h6z"/>
            <path fill="#3B3B3B" d="M29 113h-6v-6h6z"/>
        </g>
        <g fill="#FFF">
            <path d="M13.1628 10.8859V3H3.28v14h9.2653c1.5858.0004 2.9143-1.2004 3.0736-2.7782.1594-1.5779-.9021-3.02-2.456-3.3367v.0008zm-9.061 5.2912V3.8237h8.2393v7.0074a3.0866 3.0866 0 00-1.8915 5.346H4.1017zm8.4415 0c-1.2508 0-2.2649-1.014-2.2649-2.2649 0-1.2508 1.014-2.2649 2.265-2.2649 1.2508 0 2.2648 1.014 2.2648 2.265-.0013 1.2495-1.0134 2.2625-2.263 2.2648h-.0019z"/>
            <path d="M12.254 14.0584l-.5833-.5833-.5834.5833 1.1667 1.1648 1.7469-1.7473-.5833-.5833zM4.9273 5.4706h.8237v.8237h-.8237zM6.5743 5.4706h4.9416v.8237H6.5743zM4.9273 7.118h.8237v.8236h-.8237zM6.5743 7.118h4.9416v.8236H6.5743zM4.9273 8.7649h.8237v.8237h-.8237zM6.5743 8.7649h4.9416v.8237H6.5743zM4.9273 10.4122h.8237v.8237h-.8237zM6.5743 10.4122h2.4706v.8237H6.5743z"/>
        </g>
        <path d="M9.9991 23.009C6.1342 23.009 3 26.2224 3 30.1864c0 3.1705 2.0055 5.8602 4.788 6.8101.35.0662.4778-.1554.4778-.3458 0-.1707-.0062-.622-.0097-1.2206-1.9469.4334-2.3581-.9624-2.3581-.9624-.3176-.8293-.777-1.05-.777-1.05-.6361-.445.0472-.4361.0472-.4361.7027.051 1.072.7399 1.072.7399.6247 1.0964 1.6388.7801 2.0378.596.063-.4637.2441-.78.4445-.9597-1.554-.1814-3.1885-.797-3.1885-3.5467 0-.7837.273-1.4244.721-1.9266-.0726-.1814-.3124-.9115.0682-1.899 0 0 .588-.193 1.925.7355.5583-.159 1.1568-.2386 1.7527-.2413.5941.0036 1.1935.0823 1.7526.2422 1.3361-.9284 1.9232-.7354 1.9232-.7354.3815.9883.1418 1.7175.07 1.8989.449.5022.7193 1.1429.7193 1.9266 0 2.7568-1.6362 3.3635-3.1955 3.5413.2511.2216.4751.6595.4751 1.3288 0 .9597-.0087 1.7336-.0087 1.9686 0 .1921.126.4155.4812.345C14.9963 36.0449 17 33.356 17 30.1864c0-3.964-3.1342-7.1774-7.0009-7.1774z" fill="#FFF"/>
        <g fill="#FFF">
            <path d="M16.9965 57v-.0006H17V51.865c0-2.5118-.5407-4.4467-3.4772-4.4467-1.4117 0-2.359.7746-2.7458 1.509h-.0408v-1.2745H7.9519v9.3467h2.8992v-4.6282c0-1.2185.231-2.3969 1.74-2.3969 1.487 0 1.5092 1.3907 1.5092 2.4751V57h2.8962zM3.231 47.6532h2.9027V57H3.231zM4.6812 43C3.753 43 3 43.753 3 44.6812c0 .928.753 1.6969 1.6812 1.6969.928 0 1.6811-.7689 1.6811-1.697C6.3617 43.7532 5.6087 43 4.6812 43z"/>
        </g>
        <path d="M13.5006 65.3246v-2.226C13.28 63.0683 12.5218 63 11.6386 63c-1.8428 0-3.1051 1.159-3.1051 3.2894V68.25H6.5v2.4885h2.0335V77h2.4932v-6.261h1.9512l.3098-2.4884H11.026v-1.7144c.0006-.7193.1942-1.2116 1.1964-1.2116h1.278zM14.935 85.0723c-2.7317-2.7265-7.1537-2.727-9.886 0-2.7318 2.7265-2.7322 7.1399 0 9.8668 2.7318 2.7265 7.1539 2.727 9.886 0 2.732-2.7265 2.7323-7.14 0-9.8668zm-.2921 8.8722a7.0062 7.0062 0 00-1.0442-.7717c.2434-.8392.3876-1.7626.4216-2.7225h2.0553c-.093 1.2938-.591 2.5076-1.4327 3.4942zM3.9085 90.4503h2.0552c.0341.9599.1783 1.8833.4217 2.7225a7.0062 7.0062 0 00-1.0442.7717c-.8416-.9866-1.3397-2.2004-1.4327-3.4942zm1.4327-4.3835c.3266.2915.676.5495 1.0443.7718-.2434.8391-.3876 1.7626-.4217 2.7225H3.9085c.093-1.2939.591-2.5076 1.4327-3.4943zm4.2054.8637a6.0617 6.0617 0 01-2.0765-.5251c.3777-.9707 1.074-2.135 2.0765-2.4235v2.9486zm0 .8909v1.7397H6.8551c.0308-.812.146-1.5917.3378-2.3052.738.322 1.5317.5143 2.3537.5655zm0 2.6289V92.19c-.822.0511-1.6157.2434-2.3537.5654-.1917-.7134-.307-1.4931-.3378-2.3051h2.6915zm0 2.6306v2.9486c-1.0024-.2886-1.6987-1.4527-2.0765-2.4235a6.0617 6.0617 0 012.0765-.5251zm.891 0a6.0617 6.0617 0 012.0764.525c-.3777.9708-1.074 2.135-2.0765 2.4236v-2.9486zm0-.8909v-1.7397h2.6914c-.0308.812-.146 1.5917-.3378 2.3051-.738-.322-1.5317-.5143-2.3537-.5654zm0-2.6289v-1.7397c.8219-.0512 1.6156-.2435 2.3536-.5655.1917.7135.307 1.4932.3378 2.3052h-2.6915zm0-2.6306v-2.9486c1.0024.2886 1.6987 1.4528 2.0764 2.4235a6.0623 6.0623 0 01-2.0765.525zm2.0009-2.5047a6.0743 6.0743 0 011.579 1.0065 6.1217 6.1217 0 01-.7166.5428c-.222-.5489-.5058-1.0823-.8624-1.5493zM6.683 85.9751a6.124 6.124 0 01-.7166-.5428 6.0743 6.0743 0 011.5791-1.0065c-.3566.467-.6403 1.0005-.8625 1.5493zm0 8.0611c.2222.549.506 1.0824.8626 1.5494a6.0743 6.0743 0 01-1.5792-1.0065 6.1217 6.1217 0 01.7167-.5429zm6.6178 0c.2502.162.4897.3432.7167.5429a6.0743 6.0743 0 01-1.5791 1.0064c.3566-.467.6403-1.0004.8624-1.5493zm.7195-4.4751c-.0341-.9599-.1783-1.8834-.4217-2.7225a7.0076 7.0076 0 001.0442-.7718c.8417.9867 1.3397 2.2004 1.4327 3.4943h-2.0552z" fill="#FFF"/>
    </g>
</svg>